<svg width="14" height="20" viewBox="0 0 14 20" fill="none" xmlns="http://www.w3.org/2000/svg">
<path d="M13.2725 3.99916C14.2825 6.1725 14.0533 8.73083 12.935 10.81C12.0175 12.5158 10.6483 13.9267 9.52001 15.4883C9.00417 16.2033 8.48334 16.9467 8.12917 17.7608C8.01167 18.0317 7.91 18.3092 7.81 18.5875C7.70917 18.865 7.62334 19.1483 7.52667 19.4275C7.43584 19.6892 7.33 19.9975 7.00417 20H6.99834C6.61 19.9992 6.51584 19.5583 6.41917 19.2608C6.1825 18.5325 5.935 17.8333 5.57 17.1567C5.145 16.37 4.61584 15.6425 4.07834 14.9308L13.2725 3.99916ZM4.12084 6.42083L0.821671 10.3433C1.425 11.6267 2.33917 12.7292 3.21417 13.8267C3.42 14.085 3.62584 14.345 3.82834 14.6067L7.98167 9.66917L7.9575 9.6775C6.50667 10.1783 4.88167 9.435 4.2975 8.02167C4.2176 7.82982 4.15918 7.62971 4.12334 7.425C4.07084 7.06083 4.05917 6.79083 4.12 6.42667L4.12084 6.42083V6.42083ZM1.57667 2.62416L1.57417 2.6275C-0.0483293 4.6825 -0.326662 7.5275 0.643338 9.93583L4.63084 5.195L4.5825 5.15333L1.57667 2.62416ZM9.21751 0.363332L6.01917 4.16583C6.02653 4.16269 6.03404 4.15991 6.04167 4.1575C7.375 3.69833 8.8775 4.2825 9.55834 5.5125C9.705 5.77833 9.8275 6.08167 9.8725 6.38333C9.92917 6.755 9.94334 7.0275 9.8825 7.4L9.88001 7.41333L13.0767 3.6125C12.2413 2.08887 10.868 0.931307 9.225 0.365832L9.21751 0.363332ZM4.88834 4.89L8.80167 0.237498L8.7625 0.227498C8.18344 0.0752862 7.58708 -0.00118485 6.98834 -1.73891e-06C6.01884 0.0090789 5.06169 0.21853 4.17701 0.615196C3.29233 1.01186 2.49922 1.58717 1.8475 2.305L1.83417 2.32L4.88834 4.89V4.89Z" fill="#F9B15D"/>
</svg>
