<svg width="18" height="18" viewBox="0 0 18 18" fill="none" xmlns="http://www.w3.org/2000/svg">
<path d="M16.5 7.12501H15.25C15.2487 5.96509 14.7873 4.85306 13.9671 4.03288C13.1469 3.21269 12.0349 2.75133 10.875 2.75001V1.50001C12.3663 1.50166 13.7961 2.09482 14.8506 3.14936C15.9052 4.20389 16.4983 5.63367 16.5 7.12501ZM11.7081 12.4263L13.1081 11.0263C13.2955 10.8388 13.5338 10.7105 13.7934 10.6572C14.0531 10.6038 14.3226 10.6279 14.5687 10.7263L16.2737 11.4088C16.525 11.5093 16.7405 11.6828 16.8922 11.907C17.0439 12.1311 17.125 12.3956 17.125 12.6663V15.7669C17.1254 15.9512 17.0883 16.1336 17.0157 16.303C16.9432 16.4725 16.8369 16.6253 16.7033 16.7522C16.5696 16.8791 16.4115 16.9774 16.2386 17.0411C16.0656 17.1047 15.8815 17.1325 15.6975 17.1225C3.74625 16.3788 1.3325 6.25626 0.884371 2.38001C0.862667 2.1905 0.881329 1.99855 0.93913 1.81678C0.996931 1.63501 1.09256 1.46753 1.21973 1.32537C1.3469 1.1832 1.50272 1.06957 1.67696 0.99195C1.85119 0.914327 2.03988 0.874472 2.23062 0.875005H5.27625C5.54691 0.874997 5.81138 0.956087 6.03552 1.10782C6.25966 1.25955 6.4332 1.47496 6.53375 1.72626L7.21562 3.43126C7.31403 3.67736 7.33805 3.94694 7.28473 4.20657C7.2314 4.4662 7.10306 4.70448 6.91562 4.89188L5.51562 6.29188C5.51562 6.29188 6.29187 11.7494 11.7081 12.4263Z" fill="#F9B15D"/>
</svg>
